<svg xmlns="http://www.w3.org/2000/svg" viewBox="0 0 32 32" fill="none">
  <!-- Calendar base -->
  <rect x="4" y="6" width="24" height="22" rx="2" ry="2" fill="#667eea" stroke="#764ba2" stroke-width="1"/>
  
  <!-- Calendar header -->
  <rect x="4" y="6" width="24" height="6" rx="2" ry="2" fill="#764ba2"/>
  
  <!-- Calendar rings -->
  <rect x="8" y="2" width="2" height="8" rx="1" ry="1" fill="#764ba2"/>
  <rect x="22" y="2" width="2" height="8" rx="1" ry="1" fill="#764ba2"/>
  
  <!-- Calendar grid lines -->
  <line x1="4" y1="15" x2="28" y2="15" stroke="#764ba2" stroke-width="0.5" opacity="0.3"/>
  <line x1="4" y1="19" x2="28" y2="19" stroke="#764ba2" stroke-width="0.5" opacity="0.3"/>
  <line x1="4" y1="23" x2="28" y2="23" stroke="#764ba2" stroke-width="0.5" opacity="0.3"/>
  
  <line x1="10" y1="12" x2="10" y2="28" stroke="#764ba2" stroke-width="0.5" opacity="0.3"/>
  <line x1="16" y1="12" x2="16" y2="28" stroke="#764ba2" stroke-width="0.5" opacity="0.3"/>
  <line x1="22" y1="12" x2="22" y2="28" stroke="#764ba2" stroke-width="0.5" opacity="0.3"/>
  
  <!-- Event indicators (small circles) -->
  <circle cx="13" cy="17" r="1.5" fill="#ffffff" opacity="0.9"/>
  <circle cx="19" cy="21" r="1.5" fill="#ffffff" opacity="0.9"/>
  <circle cx="25" cy="17" r="1.5" fill="#ffffff" opacity="0.9"/>
  <circle cx="7" cy="25" r="1.5" fill="#ffffff" opacity="0.9"/>
</svg>
